<?xml version="1.0" standalone="no"?><!DOCTYPE svg PUBLIC "-//W3C//DTD SVG 1.1//EN" "http://www.w3.org/Graphics/SVG/1.1/DTD/svg11.dtd"><svg t="1601001209454" class="icon" viewBox="0 0 1024 1024" version="1.1" xmlns="http://www.w3.org/2000/svg" p-id="953" xmlns:xlink="http://www.w3.org/1999/xlink" width="128" height="128"><defs><style type="text/css"></style></defs><path d="M512.197973 512.197973m-419.84 0a419.84 419.84 0 1 0 839.68 0 419.84 419.84 0 1 0-839.68 0Z" fill="#7EC3FC" p-id="954"></path><path d="M121.22112 522.4448l122.811733-46.96064c13.243733-5.113173 20.04992-19.29216 15.530667-32.33792-9.577813-27.497813-2.12992-57.856 19.223893-78.29504l75.598507-72.9088c15.865173-15.182507 24.76032-35.86048 24.692053-57.412267v-32.904533a112.298667 112.298667 0 0 0-14.45888-54.654293s-267.646293 72.349013-243.397973 375.466666z" fill="#DBF083" p-id="955"></path><path d="M382.020267 136.23296l-9.29792-16.56832-18.315947 4.95616c-8.840533 2.389333-23.415467 7.4752-41.847467 15.858347a402.548053 402.548053 0 0 0-89.279146 55.569066C132.683093 270.66368 82.39104 378.825387 94.016853 524.055893l2.594134 32.515414 152.746666-58.381654c24.487253-9.46176 37.717333-35.519147 30.685867-60.306773l-0.866987-2.751147c-6.38976-18.3296-1.4336-38.516053 12.94336-52.271786l75.3664-72.676694c20.548267-19.647147 32.1536-46.646613 32.07168-74.847573v-32.699733a136.369493 136.369493 0 0 0-17.53088-66.402987z m-34.727254 42.550613l1.16736 4.416854c1.501867 6.38976 2.27328 12.929707 2.300587 19.524266v32.68608c0.04096 14.78656-6.06208 28.972373-17.046187 39.478614l-75.3664 72.676693c-28.084907 26.876587-37.976747 67.160747-25.258666 103.642453l0.006826 0.293547c-0.075093 0.32768-0.43008 0.730453-1.215146 1.037653L141.175467 487.19872l-0.02048-3.85024c0.02048-109.759147 42.120533-191.05792 113.11104-249.52832a354.167467 354.167467 0 0 1 89.27232-53.521067l3.754666-1.51552z" fill="#7B7BA3" p-id="956"></path><path d="M624.27136 911.182507l0.546133-31.49824c1.010347-58.51136-28.801707-113.001813-77.899093-142.363307l-16.97792-10.123947a181.773653 181.773653 0 0 0-66.60096-23.92064L387.2768 691.828053c-30.644907-4.594347-55.66464-27.60704-63.576747-58.477226l-8.861013-34.36544c-5.440853-21.005653-20.514133-37.935787-40.352427-45.308587a62.716587 62.716587 0 0 0-59.10528 8.349013L119.671467 632.306347s171.752107 291.198293 504.60672 278.869333z" fill="#62AFEF" p-id="957"></path><path d="M522.0352 911.291733l0.38912-22.582613c0.723627-41.956693-20.630187-81.025707-55.794347-102.07232l-12.158293-7.263573a130.102613 130.102613 0 0 0-47.69792-17.148587l-54.483627-8.21248c-21.947733-3.290453-39.867733-19.797333-45.533866-41.92256l-6.3488-24.644267c-3.8912-15.059627-14.690987-27.19744-28.904107-32.48128a44.878507 44.878507 0 0 0-42.325333 5.986987L160.62464 711.338667s123.016533 208.786773 361.403733 199.953066z" fill="#DBF083" p-id="958"></path><path d="M219.19744 645.20192l-85.879467 63.235413 11.14112 18.944c4.17792 7.099733 12.06272 18.875733 23.6544 33.77152a505.842347 505.842347 0 0 0 68.512427 72.041814c80.247467 69.28384 176.878933 109.54752 289.163947 105.376426l23.156053-0.86016 0.77824-45.602133c0.873813-50.428587-24.814933-97.50528-67.324587-122.996053l-12.117333-7.24992a153.627307 153.627307 0 0 0-56.367787-20.282027l-54.142293-8.17152c-12.00128-1.809067-21.99552-11.031893-25.23136-23.668053l-6.314667-24.569174c-5.850453-22.678187-22.186667-41.076053-43.86816-49.152a69.065387 69.065387 0 0 0-65.160533 9.181867z m48.039253 36.53632c6.57408 2.450773 11.707733 8.23296 13.605547 15.578453l6.301013 24.521387c8.034987 31.423147 33.675947 55.07072 65.324374 59.828907l54.155946 8.17152c13.55776 2.034347 26.60352 6.731093 38.46144 13.858133l12.137814 7.263573 3.365546 2.123094c24.282453 16.131413 39.417173 43.881813 40.209067 74.062506v2.798934l-0.580267-0.02048c-88.726187-2.37568-165.860693-36.898133-231.581013-93.63456a457.3184 457.3184 0 0 1-61.876907-65.058134l-5.16096-6.77888-2.689706-3.659093 49.329493-36.317867a20.043093 20.043093 0 0 1 18.998613-2.737493z" fill="#7B7BA3" p-id="959"></path><path d="M911.039147 526.895787c-29.559467 124.279467-53.6576 194.573653-72.321707 210.875733-15.557973 13.49632-146.466133 51.002027-166.577493 50.906453-3.345067 0.013653-6.690133-0.2048-10.007894-0.662186-11.025067-0.4096-21.415253-5.543253-28.808533-14.206294-20.432213-23.053653-24.18688-72.465067-24.057173-107.7248 0.034133-6.048427-3.80928-11.34592-9.33888-12.875093-21.756587-6.301013-41.10336-19.6608-55.31648-38.1952-15.039147-19.223893-38.638933-36.365653-51.377494-44.919467-13.76256-9.17504-24.890027-22.152533-32.19456-37.526186l-20.445866-43.27424a71.953067 71.953067 0 0 1-6.4512-38.775467c4.819627-42.775893 24.705707-94.4128 40.536746-130.2528 5.3248-11.987627 60.566187-117.896533 147.98848-60.388693l39.46496-30.194347c18.55488-14.29504 15.059627-60.552533 2.8672-91.36128a19.674453 19.674453 0 0 1 2.300587-18.65728s257.39264 184.2176 243.739307 407.231147z" fill="#68B3F2" p-id="960"></path><path d="M911.07328 485.676373v19.264854a44.639573 44.639573 0 0 1-35.662507 8.260266 45.01504 45.01504 0 0 1-29.948586-21.244586l-2.525867-4.266667a4.232533 4.232533 0 0 0-7.768747 1.26976l-18.868906 85.804373c-0.273067 48.10752-12.219733 82.377387-35.546454 101.853867a71.5776 71.5776 0 0 1-54.319786 15.960747 33.83296 33.83296 0 0 1-24.00256-11.30496c-17.025707-18.356907-20.15232-57.678507-20.043094-85.742934a10.50624 10.50624 0 0 0-7.7824-10.246826 89.82528 89.82528 0 0 1-46.093653-30.399147c-12.53376-15.29856-32.19456-28.945067-42.8032-35.751253a74.970453 74.970453 0 0 1-26.8288-29.873494l-17.03936-34.440533a55.016107 55.016107 0 0 1-5.372587-30.856533c4.020907-34.051413 20.5824-75.147947 33.778347-103.676587a28.214613 28.214613 0 0 1 24.139093-16.349867 28.13952 28.13952 0 0 1 25.613654 13.858134l14.677333 24.726186c2.33472 3.959467 6.929067 5.9392 11.373227 4.89472a9.229653 9.229653 0 0 0 7.63904-7.96672l0.22528-1.72032c3.19488-28.18048 21.408427-52.333227 47.445333-62.928213l34.249387-13.851307c15.455573-11.380053 3.372373-60.94848-6.77888-85.469866a15.07328 15.07328 0 0 1 1.911466-14.854827s191.71328 147.5584 180.333227 325.051733z" fill="#DBF083" p-id="961"></path><path d="M753.17248 162.658987l-20.350293-15.68768-14.779734 19.510613a38.62528 38.62528 0 0 0-4.922026 38.065493c4.785493 11.578027 9.311573 27.743573 11.154773 40.96l0.4096 3.310934c0.477867 4.273493 0.607573 7.973547 0.43008 10.888533l-0.068267 0.587093-25.593173 10.376534-3.713707 1.604266a99.546453 99.546453 0 0 0-47.445333 45.520214l-0.79872 1.645226-1.529173-2.082133a51.8144 51.8144 0 0 0-87.83872 10.110293c-18.418347 39.860907-31.429973 77.318827-35.157334 108.9536-1.754453 15.018667 0.887467 30.173867 7.591254 43.677014l16.677546 33.73056a97.6896 97.6896 0 0 0 30.9248 36.235946l4.000427 2.696534c14.615893 9.37984 28.125867 20.0704 36.2496 30.0032l3.003733 3.584a112.06656 112.06656 0 0 0 41.1648 29.641386l3.29728 1.283414 0.034134 1.440426c0.94208 38.939307 7.891627 69.707093 25.914026 89.156267l2.409814 2.525867a57.248427 57.248427 0 0 0 34.46784 16.063146l2.280106 0.157014-0.955733-0.095574a94.33088 94.33088 0 0 0 71.912107-21.05344l3.181226-2.778453c25.995947-23.668053 39.021227-60.8256 40.2432-109.513387l0.047787-3.304106 10.185387-46.318934 0.771413 0.423254a68.061867 68.061867 0 0 0 72.47872-6.26688l9.489067-7.202134v-30.747306c5.393067-83.524267-30.651733-166.66624-93.416107-244.65408a641.972907 641.972907 0 0 0-80.384-83.0464l-7.441067-6.239574c-1.590613-1.297067-2.901333-2.3552-3.925333-3.160746z m20.855467 79.0528l4.573866 4.758186a581.515947 581.515947 0 0 1 28.904107 33.082027l5.051733 6.335147c53.090987 67.638613 82.71872 138.0352 78.281387 206.964053l-0.027307 5.174613-1.37216 0.16384a19.380907 19.380907 0 0 1-4.676266-0.341333 20.022613 20.022613 0 0 1-13.29152-9.475413l-2.471254-4.164267a28.672 28.672 0 0 0-29.22496-13.5168 28.392107 28.392107 0 0 0-23.190186 21.7088l-19.1488 86.760107-0.013654 2.512213c-0.232107 40.843947-9.700693 67.87072-26.37824 81.742507a46.086827 46.086827 0 0 1-29.504853 10.533546l-2.648747-0.075093-4.778666-0.423253a8.915627 8.915627 0 0 1-6.314667-3.017387c-8.88832-9.557333-13.76256-35.744427-13.63968-68.150613a34.338133 34.338133 0 0 0-23.087787-32.535894l-2.648746-0.8192a63.781547 63.781547 0 0 1-29.989547-18.500266l-2.635093-3.072c-12.30848-14.97088-29.2864-28.34432-47.998294-40.297814a49.62304 49.62304 0 0 1-17.8176-19.770026l-16.766293-33.757867a30.12608 30.12608 0 0 1-2.976427-16.971093c3.01056-25.429333 14.697813-58.893653 31.232-94.508374a3.447467 3.447467 0 0 1 2.880854-2.061653 3.345067 3.345067 0 0 1 3.003733 1.747627l14.486187 24.302933 1.426773 2.21184a34.768213 34.768213 0 0 0 33.723733 14.308693l0.976214-0.18432a33.232213 33.232213 0 0 0 27.72992-28.521813l0.2048-1.604267c2.218667-19.387733 14.472533-35.580587 31.860053-42.632533l36.543147-14.718293 2.471253-1.809067c13.666987-10.028373 18.486613-27.757227 17.435307-48.653653l-0.18432-2.730667z" fill="#7B7BA3" p-id="962"></path><path d="M512.2048 78.711467c239.4112 0 433.493333 194.082133 433.493333 433.493333s-194.082133 433.493333-433.493333 433.493333S78.711467 751.616 78.711467 512.2048 272.7936 78.711467 512.2048 78.711467z m0 49.124693c-212.282027 0-384.36864 172.086613-384.36864 384.361813 0 212.282027 172.086613 384.36864 384.361813 384.36864 212.282027 0 384.36864-172.086613 384.36864-384.36864 0-212.2752-172.086613-384.361813-384.36864-384.361813z" fill="#7B7BA3" p-id="963"></path></svg>